<?xml version="1.0" encoding="utf-8"?>
<!-- Generator: Adobe Illustrator 26.3.0, SVG Export Plug-In . SVG Version: 6.00 Build 0)  -->
<svg version="1.1" id="Layer_1" xmlns="http://www.w3.org/2000/svg" xmlns:xlink="http://www.w3.org/1999/xlink" x="0px" y="0px"
	 viewBox="0 0 1987.5 912.5" style="enable-background:new 0 0 1987.5 912.5;" xml:space="preserve">
<style type="text/css">
	.st0{clip-path:url(#SVGID_00000145031078426957850920000001098848712889416882_);}
	.st1{fill:#F3B500;}
	.st2{clip-path:url(#SVGID_00000016047203052508680190000009940833677956571056_);}
	.st3{fill:#2B2963;}
</style>
<g id="surface1">
	<g>
		<defs>
			<rect id="SVGID_1_" x="0" y="781" width="1987.5" height="131.4"/>
		</defs>
		<clipPath id="SVGID_00000175291450257430920440000008974213380783442095_">
			<use xlink:href="#SVGID_1_"  style="overflow:visible;"/>
		</clipPath>
		<g style="clip-path:url(#SVGID_00000175291450257430920440000008974213380783442095_);">
			<path class="st1" d="M0,912.4h1987.5V781.1H0V912.4z"/>
		</g>
	</g>
	<g>
		<defs>
			<rect id="SVGID_00000108289184998849854790000005262641890967902902_" x="0" width="1987.5" height="132"/>
		</defs>
		<clipPath id="SVGID_00000090984559518783607340000015891005073757225345_">
			<use xlink:href="#SVGID_00000108289184998849854790000005262641890967902902_"  style="overflow:visible;"/>
		</clipPath>
		<g style="clip-path:url(#SVGID_00000090984559518783607340000015891005073757225345_);">
			<path class="st3" d="M0,131.4h1987.5V0H0V131.4z"/>
		</g>
	</g>
	<path class="st3" d="M981.1,276.1l-77.2,361.1h-93.4l77.2-361.1H981.1z M1374.1,509.2l49.2-135.6l28.3,135.6H1374.1z M1478.3,637.1
		h86.4l-75.5-361.1h-79.7c-18,0-33.1,10.4-39.8,26.5l-140.1,334.6h98.1l19.5-53.9H1467L1478.3,637.1z M1234.5,519.3
		c0.4-95.3-131.7-100.6-130.8-143.1c0.3-12.9,12.6-26.7,39.6-30.2c13.4-1.7,50.3-3.1,92.1,16.1l16.4-76.6c-22.5-8.1-51.4-16-87.4-16
		c-92.3,0-157.3,49.1-157.8,119.4c-0.6,52,46.4,81,81.7,98.3c36.4,17.7,48.6,29.1,48.5,44.9c-0.3,24.2-29.1,35-55.9,35.4
		c-47,0.7-74.2-12.7-95.9-22.8L968,623.7c21.8,10,62.1,18.7,103.8,19.2C1170,642.8,1234.2,594.3,1234.5,519.3 M847.6,276.1
		L696.3,637.1h-98.7L523.1,349c-4.5-17.7-8.4-24.2-22.2-31.7c-22.5-12.2-59.5-23.6-92.1-30.7l2.2-10.5h158.9
		c20.2,0,38.5,13.5,43.1,36.8l39.4,209l97.1-245.7"/>
</g>
</svg>
