<svg xmlns="http://www.w3.org/2000/svg" xmlns:xlink="http://www.w3.org/1999/xlink" width="741" height="742" viewBox="0 0 741 742">
  <defs>
    <clipPath id="clip-Artboard_1">
      <rect width="741" height="742"/>
    </clipPath>
  </defs>
  <g id="Artboard_1" data-name="Artboard – 1" clip-path="url(#clip-Artboard_1)">
    <rect width="741" height="742" fill="#fff"/>
    <g id="Group_130" data-name="Group 130" transform="translate(-1053.377 -27.907)">
      <path id="Path_313" data-name="Path 313" d="M1421.245,27.907,1053.424,399.238l367.821,370.325,372.828-370.325ZM1112.819,396.22,1422.741,47.028,1729.668,396.22,1421.245,751.448Z" transform="translate(0 0)" fill="#1a1818"/>
      <path id="Path_314" data-name="Path 314" d="M1184.38,552.1s-45.29,13.082-52.331,8.049-30.19-56.353-21.133-147.927S1199.474,66.048,1249.788,48.94s167.048,20.127,171.073,28.178-1.007,14.088-36.229,25.157c-5.579,1.755-10.479,3.459-14.772,5.084a75.987,75.987,0,0,0-39.1,33.43c-27.8,48.692-100.863,180.01-104.119,220.445,34.219-24.486,156.981-117.069,266.674-117.069,103.422,0,101.64,46.293,101.64,67.426s8.052,40.919-10.065,49.643-104.655,66.081-143.9,121.429-105.664,169.063-106.668,222.4h-11.072s-10.062-36.229-25.157-61.386-8.054-31.2,4.024-39.248l12.076-8.048s24.153-112.709,91.576-196.232c0,0-22.139-9.057-113.716,51.32S1184.38,552.1,1184.38,552.1Z" transform="translate(94.462 28.276)" fill="#cd2027"/>
    </g>
  </g>
</svg>
