<?xml version="1.0" encoding="utf-8"?>
<!-- Generator: Adobe Illustrator 26.3.0, SVG Export Plug-In . SVG Version: 6.00 Build 0)  -->
<svg version="1.1" id="Layer_1" xmlns="http://www.w3.org/2000/svg" xmlns:xlink="http://www.w3.org/1999/xlink" x="0px" y="0px"
	 viewBox="0 0 741 742" style="enable-background:new 0 0 741 742;" xml:space="preserve">
<style type="text/css">
	.st0{fill:#1A1818;}
	.st1{fill:#CD2027;}
</style>
<g>
	<g id="Artboard_1">
		<g id="Group_130" transform="translate(-1053.377 -27.907)">
			<path id="Path_313" class="st0" d="M1421.2,27.9l-367.8,371.3l367.8,370.3l372.8-370.3L1421.2,27.9z M1112.8,396.2L1422.7,47
				l306.9,349.2l-308.4,355.2L1112.8,396.2z"/>
			<path id="Path_314" class="st1" d="M1278.8,580.4c0,0-45.3,13.1-52.3,8s-30.2-56.4-21.1-147.9s88.6-346.2,138.9-363.3
				s167,20.1,171.1,28.2s-1,14.1-36.2,25.2c-5.6,1.8-10.5,3.5-14.8,5.1c-16.5,6.3-30.3,18.1-39.1,33.4
				c-27.8,48.7-100.9,180-104.1,220.4c34.2-24.5,157-117.1,266.7-117.1c103.4,0,101.6,46.3,101.6,67.4s8.1,40.9-10.1,49.6
				s-104.7,66.1-143.9,121.4S1429.8,680,1428.8,733.3h-11.1c0,0-10.1-36.2-25.2-61.4s-8.1-31.2,4-39.2l12.1-8
				c0,0,24.2-112.7,91.6-196.2c0,0-22.1-9.1-113.7,51.3S1278.8,580.4,1278.8,580.4z"/>
		</g>
	</g>
</g>
</svg>
